<?xml version="1.0" standalone="no"?><!DOCTYPE svg PUBLIC "-//W3C//DTD SVG 1.1//EN" "http://www.w3.org/Graphics/SVG/1.1/DTD/svg11.dtd"><svg t="1681742327804" class="icon" viewBox="0 0 1024 1024" version="1.1" xmlns="http://www.w3.org/2000/svg" p-id="3956" xmlns:xlink="http://www.w3.org/1999/xlink" width="64" height="64"><path d="M511.999488 65.290005C265.29162 65.290005 65.290517 265.291109 65.290517 511.998977c0 246.708891 200.001103 446.709995 446.708971 446.709995S958.70846 758.707868 958.70846 511.998977C958.70846 265.291109 758.707356 65.290005 511.999488 65.290005L511.999488 65.290005zM716.82855 637.854383c6.803963 6.819313 6.803963 17.856693 0 24.676006l-54.298673 54.29765c-6.819313 6.804986-17.85567 6.820336-24.676006 0L511.999488 590.973656 386.144082 716.828039c-6.819313 6.804986-17.871019 6.804986-24.676006 0l-54.29765-54.29765c-6.804986-6.804986-6.804986-17.856693 0-24.676006l125.869732-125.855406L307.170426 386.144594c-6.804986-6.819313-6.804986-17.871019 0-24.676006l54.29765-54.298673c6.820336-6.803963 17.856693-6.803963 24.676006 0l125.855406 125.870756 125.854383-125.870756c6.820336-6.803963 17.856693-6.803963 24.676006 0l54.298673 54.298673c6.803963 6.804986 6.803963 17.856693 0 24.676006L590.973144 511.998977 716.82855 637.854383 716.82855 637.854383zM716.82855 637.854383" fill="#FF696A" p-id="3957"></path></svg>