<?xml version="1.0" standalone="no"?><!DOCTYPE svg PUBLIC "-//W3C//DTD SVG 1.1//EN" "http://www.w3.org/Graphics/SVG/1.1/DTD/svg11.dtd"><svg t="1679843999936" class="icon" viewBox="0 0 1024 1024" version="1.1" xmlns="http://www.w3.org/2000/svg" p-id="1137" xmlns:xlink="http://www.w3.org/1999/xlink" width="64" height="64"><path d="M404 665.3c-2 0-3.9-0.6-5.6-1.9-21-16.4-42.8-57.6-41.2-109.1 1.4-45.9 21.9-113.6 111.6-175.3 1.5-1.1 3.3-1.6 5.1-1.6 1.5 0 3 0.4 4.3 1.1 3 1.6 4.8 4.8 4.7 8.2L479.6 506c-0.1 2.9-1.6 5.6-4 7.2-71.4 48.1-66.1 120.6-62.7 141.7 0.6 3.7-1.1 7.3-4.3 9.2-1.5 0.8-3 1.2-4.6 1.2z" fill="#FFE08A" p-id="1138"></path><path d="M473.9 386.4l-3.3 119.3c-73.7 49.6-70.9 123.6-66.6 150.6-39-30.5-84.5-163.6 69.9-269.9m0-18c-3.6 0-7.1 1.1-10.2 3.2-39.2 27-68.9 57.6-88.5 91.2-16.9 29.1-26 59.8-27 91.3-0.8 24.6 3.6 49 12.6 70.8 8.1 19.6 19.5 35.8 32 45.6 3.2 2.5 7.2 3.8 11.1 3.8 3.1 0 6.3-0.8 9.1-2.5 6.4-3.8 9.8-11 8.7-18.3-3.1-19.8-8.1-87.8 58.9-132.9 4.8-3.2 7.8-8.6 7.9-14.4l3.3-119.3c0.2-6.8-3.4-13.1-9.4-16.3-2.6-1.5-5.5-2.2-8.5-2.2z m0 36z" fill="#330867" p-id="1139"></path><path d="M795.1 663c-1.5 0-3.1-0.4-4.5-1.2-3.2-1.8-5-5.5-4.4-9.1 3.1-21.1 7.5-93.8-64.5-141-2.4-1.6-3.9-4.3-4.1-7.2l-4.8-119.3c-0.1-3.4 1.6-6.6 4.6-8.2 1.4-0.8 2.9-1.1 4.4-1.1 1.8 0 3.5 0.5 5 1.5 90.5 60.7 111.8 128.2 113.8 174.1 2.2 51.5-19.1 92.8-39.8 109.5-1.7 1.3-3.7 2-5.7 2z" fill="#FFE08A" p-id="1140"></path><path d="M721.8 384.9C877.5 489.4 833.7 623 795.1 654c3.9-27.1 5.8-101.1-68.5-149.8l-4.8-119.3m0-18c-3 0-6.1 0.8-8.8 2.3-5.9 3.3-9.5 9.7-9.2 16.4l4.8 119.3c0.2 5.8 3.3 11.1 8.1 14.3 67.6 44.3 63.4 112.3 60.5 132.2-1.1 7.3 2.5 14.5 8.9 18.2 2.8 1.6 5.9 2.4 8.9 2.4 4 0 8-1.3 11.3-4 12.4-10 23.6-26.3 31.5-46 8.7-21.9 12.8-46.4 11.7-70.9-1.4-31.5-10.8-62.1-28.1-91-20-33.3-50.1-63.6-89.6-90.2-3-2-6.5-3-10-3z" fill="#330867" p-id="1141"></path><path d="M541.5 408.2a56.5 54.9 0 1 0 113 0 56.5 54.9 0 1 0-113 0Z" fill="#FFFFFF" p-id="1142"></path><path d="M598 463.9c-31.4 0-57.1-24.8-57.3-55.4-0.1-14.9 5.8-28.9 16.5-39.5 10.7-10.6 25.1-16.5 40.4-16.5h0.4c31.4 0 57.1 24.8 57.3 55.4 0.1 14.9-5.8 28.9-16.5 39.5-10.7 10.6-25.1 16.5-40.4 16.5h-0.4z m0-109.8h-0.3c-14.9 0.1-28.8 5.8-39.3 16.1-10.4 10.3-16.1 23.9-16.1 38.3 0.2 29.7 25.1 53.8 55.7 53.8h0.3c14.9-0.1 28.8-5.8 39.3-16.1 10.4-10.3 16.1-23.9 16.1-38.3-0.2-29.7-25.2-53.8-55.7-53.8z" fill="#7993AA" p-id="1143"></path><path d="M506.9 675.7c-3.3 0-6.3-1.8-7.9-4.6-34.1-61.2-54-150.9-54.6-246-0.3-40.7 7.3-83.1 22.3-125.9 12-34.1 28.8-68.5 49.9-102.3 35.9-57.5 71.5-92.9 73-94.4 1.8-1.7 4-2.6 6.3-2.6s4.5 0.8 6.2 2.5c1.5 1.5 37.6 36.4 74.2 93.5 21.6 33.5 38.8 67.8 51.2 101.7 15.6 42.6 23.7 84.8 23.9 125.6 0.6 95.1-18.2 185-51.5 246.6-1.6 2.9-4.6 4.7-7.9 4.7 0.3 0.1-185.1 1.2-185.1 1.2z" fill="#66C1FF" p-id="1144"></path><path d="M596.1 109s145.5 140.3 146.6 314.3c0.6 97.2-19.1 184.2-50.4 242.3l-185.4 1.1c-32.1-57.6-52.9-144.4-53.5-241.6C452.3 251 596.1 109 596.1 109m0-18c-4.6 0-9.1 1.7-12.6 5.2-1.5 1.5-37.9 37.6-74.4 96-21.5 34.4-38.6 69.4-50.8 104-15.4 43.8-23.1 87.1-22.9 128.9 0.6 96.6 20.9 187.8 55.8 250.3 3.2 5.7 9.2 9.2 15.7 9.2h0.1l185.4-1.1c6.6 0 12.6-3.7 15.7-9.4 34-62.9 53.2-154.4 52.6-250.9-0.3-41.8-8.5-85.1-24.5-128.6-12.7-34.5-30.2-69.3-52.1-103.4-37.2-57.9-74-93.6-75.6-95.1-3.4-3.4-7.9-5.1-12.4-5.1z" fill="#330867" p-id="1145"></path><path d="M692.3 665.6c10.4-19.3 19.6-41.7 27.1-66.7-89.8 55.1-142.8 57.4-237.6 9.8 7.3 21.5 15.7 41 25.2 58l185.3-1.1z" fill="#18A3D3" p-id="1146"></path><path d="M597.9 462.4c-35.9 0-65.2-28.5-65.5-63.5-0.1-17.1 6.6-33.2 19-45.4 12.3-12.1 28.6-18.8 46.1-18.9h0.4c35.9 0 65.2 28.5 65.5 63.5 0.1 17.1-6.6 33.2-19 45.4-12.3 12.1-28.6 18.8-46.1 18.9h-0.4z" fill="#FFE08A" p-id="1147"></path><path d="M597.9 343.6c31 0 56.3 24.4 56.5 54.6 0.2 30.3-24.9 55-56.1 55.2h-0.4c-31 0-56.3-24.4-56.5-54.6-0.2-30.3 24.9-55 56.1-55.2h0.4m0-18v18-18h-0.5c-19.8 0.1-38.4 7.7-52.3 21.5-14.1 13.9-21.8 32.3-21.6 51.9 0.1 19.5 8 37.8 22.2 51.4 14 13.5 32.6 21 52.3 21h0.5c19.8-0.1 38.4-7.7 52.3-21.5 14.1-13.9 21.8-32.3 21.7-51.9-0.1-19.5-8-37.8-22.2-51.4-14.1-13.5-32.7-21-52.4-21z" fill="#330867" p-id="1148"></path><path d="M601.2 926.1c-3.2 0-6.2-1.7-7.8-4.5-2.5-4.4-62.1-109.3-62.4-152.5-0.1-22 6.7-42.9 19.3-58.7 13-16.4 30.6-25.5 49.5-25.6h0.3c18.8 0 36.4 8.9 49.6 25.1 12.7 15.6 19.8 36.4 19.9 58.3 0.3 43.2-58 148.8-60.5 153.3a9.12 9.12 0 0 1-7.9 4.6z" fill="#FC6B79" p-id="1149"></path><path d="M600.1 693.7c33.2 0 60.2 33.3 60.5 74.5 0.3 41.4-59.3 148.9-59.3 148.9S540.2 810.3 540 769c-0.3-41.4 26.5-75.1 59.8-75.3h0.3m0-18h-0.4c-21.7 0.1-41.7 10.4-56.5 29-13.8 17.4-21.4 40.3-21.2 64.4 0.1 20.1 10.7 51.9 32.5 97.2 15.4 32.1 30.5 58.6 31.1 59.7 3.2 5.6 9.2 9.1 15.6 9.1h0.1c6.5 0 12.5-3.6 15.6-9.3 0.6-1.1 15.4-27.8 30.4-60.1 21.2-45.6 31.4-77.5 31.2-97.6-0.2-24-7.9-46.7-21.9-64-14.9-18.3-35-28.4-56.5-28.4z" fill="#330867" p-id="1150"></path></svg>