<?xml version="1.0" standalone="no"?><!DOCTYPE svg PUBLIC "-//W3C//DTD SVG 1.1//EN" "http://www.w3.org/Graphics/SVG/1.1/DTD/svg11.dtd"><svg t="1685747245913" class="icon" viewBox="0 0 1024 1024" version="1.1" xmlns="http://www.w3.org/2000/svg" p-id="2778" xmlns:xlink="http://www.w3.org/1999/xlink" width="64" height="64"><path d="M399.872 345.088h139.264l46.592 46.592h139.264v-11.776c0-25.6-20.992-46.592-46.592-46.592H493.056L446.464 286.72H307.2c-25.6 0-46.08 20.992-46.08 46.592v278.528c0 25.6 20.992 46.592 46.592 46.592h46.592V391.68c-0.512-26.112 19.968-46.592 45.568-46.592z" fill="#FFE9B4" p-id="2779"></path><path d="M771.584 391.168h-185.856l-46.592-46.592H399.872c-25.6 0-46.08 20.992-46.08 46.592v278.528c0 25.6 20.992 46.592 46.592 46.592h371.2c25.6 0 46.592-20.992 46.592-46.592V437.76c0-25.6-20.992-46.592-46.592-46.592z" fill="#FFBA00" p-id="2780"></path><path d="M849.408 702.976c0-20.48 16.896-30.72 29.184-37.888 12.288-7.168 17.92-11.264 17.92-18.432 0-6.656-5.12-10.752-17.408-18.432s-28.672-17.92-28.672-38.4 16.896-30.72 29.184-37.888c12.288-7.168 17.92-11.264 17.92-18.432 0-6.656 5.12-11.776 11.776-11.264 6.656 0 11.776 5.12 11.264 11.776 0 20.48-16.896 30.72-29.184 37.888-12.288 7.168-17.92 11.264-17.92 18.432 0 6.656 5.12 10.752 17.408 18.432s28.672 17.92 28.672 38.4-16.896 30.72-29.184 37.888c-12.288 7.168-17.92 11.264-17.92 18.432s5.12 10.752 17.408 18.432 28.672 17.92 28.672 38.4c0 6.656-5.12 11.776-11.776 11.264-6.656 0-11.776-5.12-11.264-11.776 0-7.168-5.12-10.752-17.408-18.432-12.288-7.168-28.672-17.408-28.672-38.4z" fill="#FFC879" p-id="2781"></path><path d="M761.856 279.552h65.536v65.536h-65.536zM458.24 263.168l34.816-34.816H423.424z" fill="#FFF7EC" p-id="2782"></path><path d="M307.2 762.88m-32.768 0a32.768 32.768 0 1 0 65.536 0 32.768 32.768 0 1 0-65.536 0Z" fill="#FFF7EC" p-id="2783"></path><path d="M159.744 556.032c-30.72 0-56.32 25.088-56.32 56.32s25.088 56.32 56.32 56.32 56.32-25.088 56.32-56.32-25.6-56.32-56.32-56.32z m0 88.576c-17.92 0-32.768-14.848-32.768-32.768 0-17.92 14.848-32.768 32.768-32.768s32.768 14.848 32.768 32.768c0 18.432-14.848 32.768-32.768 32.768z" fill="#FFC879" p-id="2784"></path></svg>