<?xml version="1.0" standalone="no"?><!DOCTYPE svg PUBLIC "-//W3C//DTD SVG 1.1//EN" "http://www.w3.org/Graphics/SVG/1.1/DTD/svg11.dtd"><svg t="1685747535301" class="icon" viewBox="0 0 1024 1024" version="1.1" xmlns="http://www.w3.org/2000/svg" p-id="4371" xmlns:xlink="http://www.w3.org/1999/xlink" width="64" height="64"><path d="M959.126706 223.982534H480.062378l-95.812865-95.46754H64.873294c-17.300211 0-32.270971 6.132023-44.91228 18.398066C7.319704 159.179103 0.998051 174.259649 0.998051 192.160686v668.280764c0 17.901037 6.321653 32.983579 18.962963 45.247626 12.64131 12.266043 27.61207 18.398066 44.91228 18.398066h894.253412c17.964912 0 33.101349-6.132023 45.411306-18.398066 12.309957-12.264047 18.463938-27.346589 18.463937-45.247626V287.630222c0-17.901037-6.153981-32.983579-18.463937-45.247626-12.309957-12.266043-27.446394-18.398066-45.411306-18.398066zM64.873294 192.162682h290.432749L434.152047 268.735127l19.961013 18.895095h505.013646v63.645692H64.873294V192.160686z m0 668.280764V414.921606h894.253412V860.439454H64.873294z" fill="#aac559" p-id="4372"></path></svg>