<?xml version="1.0" standalone="no"?><!DOCTYPE svg PUBLIC "-//W3C//DTD SVG 1.1//EN" "http://www.w3.org/Graphics/SVG/1.1/DTD/svg11.dtd"><svg t="1681742322505" class="icon" viewBox="0 0 1024 1024" version="1.1" xmlns="http://www.w3.org/2000/svg" p-id="3802" xmlns:xlink="http://www.w3.org/1999/xlink" width="64" height="64"><path d="M511.998465 65.290005c-246.722194 0-446.708971 200.001103-446.708971 446.708971 0 246.708891 199.986777 446.709995 446.708971 446.709995 246.708891 0 446.711018-200.001103 446.711018-446.709995C958.709483 265.291109 758.707356 65.290005 511.998465 65.290005L511.998465 65.290005zM756.308727 405.884171 465.103412 697.081299c-6.804986 6.819313-17.856693 6.819313-24.662703 0L267.69025 524.33084c-6.804986-6.804986-6.804986-17.856693 0-24.668843l54.29765-54.290487c6.804986-6.812149 17.856693-6.812149 24.662703 0l106.122993 106.107643 224.574778-224.561475c6.804986-6.812149 17.857716-6.812149 24.663726 0l54.29765 54.290487C763.128039 388.020314 763.128039 399.072021 756.308727 405.884171L756.308727 405.884171 756.308727 405.884171zM756.308727 405.884171" fill="#89C27E" p-id="3803"></path></svg>