<?xml version="1.0" standalone="no"?><!DOCTYPE svg PUBLIC "-//W3C//DTD SVG 1.1//EN" "http://www.w3.org/Graphics/SVG/1.1/DTD/svg11.dtd"><svg t="1681742284704" class="icon" viewBox="0 0 1024 1024" version="1.1" xmlns="http://www.w3.org/2000/svg" p-id="3549" width="64" height="64" xmlns:xlink="http://www.w3.org/1999/xlink"><path d="M619.797633 65.290005 167.459454 65.290005c-26.975375 0-49.868781 22.86373-49.868781 49.897434 0 27.019377 22.893406 49.854455 49.868781 49.854455l452.337155 0c27.033703 0 49.926086-22.834055 49.926086-49.854455C669.723719 88.153736 646.831336 65.290005 619.797633 65.290005L619.797633 65.290005zM619.797633 65.290005" fill="#90C132" p-id="3550"></path><path d="M856.538499 329.850473 167.459454 329.850473c-26.975375 0-49.868781 22.864754-49.868781 49.898457 0 27.005051 22.893406 49.839105 49.868781 49.839105l689.079044 0c27.033703 0 49.867758-22.834055 49.867758-49.839105C906.40728 352.715227 883.572202 329.850473 856.538499 329.850473L856.538499 329.850473zM856.538499 329.850473" fill="#90C132" p-id="3551"></path><path d="M856.538499 594.396615 167.459454 594.396615c-26.975375 0-49.868781 22.864754-49.868781 49.898457 0 27.034726 22.893406 49.868781 49.868781 49.868781l689.079044 0c27.033703 0 49.867758-22.834055 49.867758-49.868781C906.40728 617.260345 883.572202 594.396615 856.538499 594.396615L856.538499 594.396615zM856.538499 594.396615" fill="#90C132" p-id="3552"></path><path d="M856.538499 858.941734 167.459454 858.941734c-26.975375 0-49.868781 22.864754-49.868781 49.898457 0 27.034726 22.893406 49.868781 49.868781 49.868781l689.079044 0c27.033703 0 49.867758-22.834055 49.867758-49.868781C906.40728 881.806487 883.572202 858.941734 856.538499 858.941734L856.538499 858.941734zM856.538499 858.941734" fill="#90C132" p-id="3553"></path></svg>